<svg width="326" height="104" viewBox="0 0 326 104" fill="none" xmlns="http://www.w3.org/2000/svg">
<g filter="url(#filter0_d_102_383)">
<path d="M51.688 0C25.3512 0 4 21.4907 4 48.0003C4 74.511 25.3512 96 51.688 96C78.0277 96 99.3766 74.511 99.3766 48.0003C99.3766 21.4924 78.0277 0.00229276 51.6874 0.00229276L51.688 0ZM73.5574 69.2302C72.7032 70.6402 70.8696 71.0873 69.4687 70.2218C58.2721 63.3378 44.1769 61.7787 27.5772 65.5961C25.9776 65.963 24.3831 64.9542 24.0187 63.3435C23.6525 61.7328 24.6508 60.1279 26.2544 59.761C44.42 55.5836 60.0021 57.3823 72.5723 65.1147C73.9731 65.9802 74.4173 67.8201 73.5574 69.2302ZM79.3943 56.1603C78.3181 57.9211 76.0289 58.4771 74.2806 57.3938C61.4622 49.4631 41.9224 47.1663 26.7606 51.7988C24.7943 52.3967 22.7175 51.2812 22.1207 49.3054C21.5284 47.3262 22.6372 45.2398 24.6001 44.6379C41.919 39.3485 63.4496 41.9107 78.17 51.0159C79.9183 52.0992 80.4706 54.4028 79.3943 56.1603ZM79.8955 42.5504C64.5258 33.3615 39.1679 32.5166 24.4936 36.9996C22.1372 37.7189 19.6453 36.38 18.9312 34.0081C18.2171 31.6351 19.5462 29.1285 21.9043 28.4074C38.7494 23.2602 66.7524 24.2546 84.4477 34.8283C86.5718 36.0945 87.2665 38.8498 86.008 40.9804C84.7552 43.1138 82.0104 43.8171 79.8978 42.5504H79.8955ZM133.743 44.3112C125.509 42.3349 124.045 40.9477 124.045 38.033C124.045 35.2794 126.619 33.4263 130.452 33.4263C134.165 33.4263 137.843 34.8335 141.704 37.7304C141.818 37.8181 141.966 37.8531 142.109 37.8301C142.257 37.8083 142.382 37.7287 142.467 37.6089L146.488 31.9045C146.653 31.6695 146.607 31.3456 146.385 31.1662C141.79 27.4559 136.619 25.6521 130.571 25.6521C121.682 25.6521 115.469 31.0223 115.469 38.706C115.469 46.9456 120.828 49.8632 130.087 52.1152C137.963 53.942 139.296 55.4724 139.296 58.2077C139.296 61.2399 136.608 63.1257 132.28 63.1257C127.474 63.1257 123.55 61.4921 119.165 57.6746C119.057 57.5772 118.909 57.5371 118.772 57.5428C118.624 57.5543 118.493 57.623 118.402 57.7319L113.892 63.1314C113.704 63.3607 113.727 63.6931 113.943 63.888C119.046 68.4736 125.321 70.8924 132.098 70.8924C141.676 70.8924 147.866 65.6248 147.866 57.4683C147.883 50.586 143.789 46.7742 133.76 44.3187L133.743 44.3112ZM169.539 36.1375C165.388 36.1375 161.983 37.7837 159.17 41.1569V37.3601C159.17 37.0603 158.93 36.8162 158.634 36.8162H151.26C150.964 36.8162 150.725 37.0603 150.725 37.3601V79.5477C150.725 79.8457 150.964 80.0922 151.26 80.0922H158.634C158.93 80.0922 159.17 79.8457 159.17 79.5477V66.2324C161.983 69.4021 165.388 70.9555 169.539 70.9555C177.255 70.9555 185.068 64.9771 185.068 53.5482C185.08 42.117 177.267 36.1369 169.545 36.1369L169.539 36.1375ZM176.492 53.5482C176.492 59.3655 172.933 63.4295 167.831 63.4295C162.791 63.4295 158.987 59.1821 158.987 53.5482C158.987 47.9137 162.791 43.6675 167.831 43.6675C172.848 43.667 176.492 47.822 176.492 53.5482ZM205.085 36.1375C195.148 36.1375 187.363 43.8389 187.363 53.6726C187.363 63.4008 195.097 71.0186 204.965 71.0186C214.936 71.0186 222.744 63.3435 222.744 53.5482C222.744 43.7862 214.988 36.1375 205.085 36.1375ZM205.085 63.4868C199.8 63.4868 195.814 59.2108 195.814 53.5453C195.814 47.8541 199.664 43.7243 204.965 43.7243C210.284 43.7243 214.293 47.9986 214.293 53.6697C214.293 59.3598 210.421 63.4868 205.085 63.4868ZM243.962 36.8162H235.847V28.467C235.847 28.1678 235.608 27.9236 235.312 27.9236H227.937C227.641 27.9236 227.396 28.1678 227.396 28.467V36.8162H223.854C223.558 36.8162 223.319 37.0603 223.319 37.3601V43.738C223.319 44.0372 223.558 44.282 223.854 44.282H227.396V60.7871C227.396 67.4533 230.693 70.8351 237.202 70.8351C239.844 70.8351 242.037 70.2849 244.104 69.1041C244.275 69.0124 244.377 68.8289 244.377 68.6341V62.5582C244.377 62.3748 244.281 62.1971 244.121 62.0997C243.962 61.9965 243.762 61.9908 243.597 62.0767C242.179 62.7932 240.807 63.1257 239.269 63.1257C236.906 63.1257 235.847 62.0424 235.847 59.6235V44.2849H243.962C244.258 44.2849 244.497 44.0407 244.497 43.7409V37.3636C244.508 37.0638 244.269 36.8196 243.967 36.8196L243.962 36.8162ZM272.229 36.8488V35.8234C272.229 32.8067 273.38 31.4614 275.954 31.4614C277.491 31.4614 278.727 31.7686 280.111 32.2329C280.282 32.2868 280.458 32.2598 280.595 32.1572C280.737 32.0546 280.817 31.8901 280.817 31.7159V25.4624C280.817 25.2233 280.669 25.0118 280.435 24.9413C278.978 24.504 277.11 24.0552 274.308 24.0552C267.503 24.0552 263.898 27.915 263.898 35.2135V36.7841H260.356C260.06 36.7841 259.815 37.0282 259.815 37.3274V43.738C259.815 44.0372 260.06 44.282 260.356 44.282H263.898V69.7346C263.898 70.0384 264.143 70.2791 264.439 70.2791H271.808C272.11 70.2791 272.349 70.0384 272.349 69.7346V44.2837H279.234L289.78 69.7346C288.584 72.4057 287.405 72.9387 285.8 72.9387C284.501 72.9387 283.129 72.549 281.734 71.7752C281.603 71.7064 281.443 71.6949 281.307 71.735C281.164 71.7866 281.045 71.8898 280.988 72.0274L278.488 77.5472C278.368 77.8109 278.471 78.1147 278.721 78.2522C281.329 79.6738 283.681 80.2813 286.591 80.2813C292.035 80.2813 295.048 77.7249 297.696 70.8581L310.486 37.5917C310.554 37.4243 310.531 37.2352 310.429 37.0867C310.332 36.9394 310.167 36.8505 309.99 36.8505H302.314C302.08 36.8505 301.875 36.9979 301.801 37.2151L293.937 59.8184L285.327 37.2002C285.247 36.9898 285.048 36.8505 284.826 36.8505H272.229V36.8488ZM255.841 36.8162H248.466C248.17 36.8162 247.925 37.0603 247.925 37.3601V69.7346C247.925 70.0384 248.17 70.2791 248.466 70.2791H255.841C256.137 70.2791 256.381 70.0384 256.381 69.7346V37.3624C256.381 37.0626 256.142 36.8184 255.841 36.8184V36.8162ZM252.196 22.0742C249.275 22.0742 246.906 24.4541 246.906 27.394C246.906 30.3356 249.275 32.7184 252.196 32.7184C255.117 32.7184 257.481 30.3356 257.481 27.394C257.481 24.4547 255.112 22.0742 252.196 22.0742ZM316.784 47.2259C313.868 47.2259 311.596 44.8672 311.596 42.003C311.596 39.1387 313.897 36.7531 316.812 36.7531C319.728 36.7531 322 39.1112 322 41.9732C322 44.8374 319.699 47.2259 316.784 47.2259ZM316.812 37.2724C314.153 37.2724 312.143 39.399 312.143 42.003C312.143 44.6058 314.141 46.7037 316.784 46.7037C319.443 46.7037 321.453 44.5789 321.453 41.9732C321.453 39.3703 319.455 37.2724 316.812 37.2724ZM317.963 42.5103L319.432 44.5783H318.19L316.869 42.6811H315.736V44.5783H314.7V39.0963H317.125C318.395 39.0963 319.227 39.748 319.227 40.8451C319.232 41.7439 318.714 42.293 317.968 42.5103H317.963ZM317.086 40.0369H315.736V41.7708H317.086C317.758 41.7708 318.162 41.439 318.162 40.903C318.162 40.339 317.758 40.0369 317.086 40.0369Z" fill="#62CD5D"/>
</g>
<defs>
<filter id="filter0_d_102_383" x="0" y="0" width="326" height="104" filterUnits="userSpaceOnUse" color-interpolation-filters="sRGB">
<feFlood flood-opacity="0" result="BackgroundImageFix"/>
<feColorMatrix in="SourceAlpha" type="matrix" values="0 0 0 0 0 0 0 0 0 0 0 0 0 0 0 0 0 0 127 0" result="hardAlpha"/>
<feOffset dy="4"/>
<feGaussianBlur stdDeviation="2"/>
<feComposite in2="hardAlpha" operator="out"/>
<feColorMatrix type="matrix" values="0 0 0 0 0 0 0 0 0 0 0 0 0 0 0 0 0 0 0.25 0"/>
<feBlend mode="normal" in2="BackgroundImageFix" result="effect1_dropShadow_102_383"/>
<feBlend mode="normal" in="SourceGraphic" in2="effect1_dropShadow_102_383" result="shape"/>
</filter>
</defs>
</svg>
